Coordinates
version=1
nRows=32
nColumns=12
inDegrees=yes

Units are S.I. units (second, meters, Newtons, ...)
Angles are in degrees

endheader
time	SC_y	SC_z	SC_x	AC_y	AC_z	AC_x	GH_y	GH_z	GH_yy	EL_x	PS_y
       0.0              -38.54         0.8891          60.91          35.91         -3.665          7.693          13.74           69.9          18.19          95.53          110.4
   0.03103              -38.53         0.8932          60.91          35.92         -3.667          7.694          13.75          69.89          18.19          95.53          110.4
   0.06206              -38.53         0.8976          60.92          35.92         -3.668          7.695          13.77          69.89          18.18          95.53          110.4
   0.09309              -38.53         0.9022          60.92          35.92          -3.67          7.696          13.78          69.88          18.18          95.53          110.4
    0.1241              -38.53         0.9071          60.92          35.92         -3.671          7.697           13.8          69.87          18.17          95.53          110.4
    0.1551              -38.52         0.9124          60.92          35.92         -3.673          7.698          13.82          69.86          18.17          95.53          110.4
    0.1862              -38.52          0.918          60.93          35.92         -3.675          7.699          13.83          69.86          18.16          95.53          110.4
    0.2172              -38.51          0.924          60.93          35.92         -3.677            7.7          13.85          69.85          18.15          95.53          110.4
    0.2482              -38.51         0.9304          60.93          35.92         -3.679          7.701          13.87          69.84          18.15          95.53          110.4
    0.2793              -38.51         0.9373          60.94          35.92         -3.681          7.703           13.9          69.83          18.14          95.52          110.4
    0.3103               -38.5         0.9447          60.94          35.92         -3.684          7.704          13.92          69.82          18.13          95.52          110.5
    0.3413               -38.5         0.9526          60.95          35.93         -3.686          7.706          13.95          69.81          18.12          95.52          110.5
    0.3724              -38.49         0.9612          60.95          35.93         -3.689          7.708          13.98          69.79          18.11          95.52          110.5
    0.4034              -38.49         0.9705          60.96          35.93         -3.692           7.71          14.01          69.78           18.1          95.52          110.5
    0.4344              -38.48         0.9805          60.96          35.93         -3.696          7.712          14.04          69.77          18.09          95.51          110.5
    0.4654              -38.47         0.9914          60.97          35.93         -3.699          7.714          14.07          69.75          18.08          95.51          110.5
    0.4965              -38.46          1.003          60.97          35.93         -3.703          7.716          14.11          69.73          18.06          95.51          110.5
    0.5275              -38.46          1.016          60.98          35.94         -3.707          7.719          14.15          69.72          18.05          95.51          110.5
    0.5585              -38.45           1.03          60.99          35.94         -3.712          7.722           14.2           69.7          18.03           95.5          110.6
    0.5896              -38.44          1.046           61.0          35.94         -3.717          7.725          14.25          69.67          18.01           95.5          110.6
    0.6206              -38.43          1.062           61.0          35.94         -3.722          7.728          14.31          69.65          17.99           95.5          110.6
    0.6516              -38.42          1.081          61.01          35.95         -3.729          7.732          14.37          69.62          17.97          95.49          110.6
    0.6826               -38.4          1.102          61.02          35.95         -3.735          7.736          14.43          69.59          17.95          95.49          110.6
    0.7137              -38.39          1.124          61.04          35.95         -3.743          7.741          14.51          69.56          17.92          95.48          110.7
    0.7447              -38.37           1.15          61.05          35.96         -3.751          7.746          14.59          69.53          17.89          95.48          110.7
    0.7757              -38.35          1.178          61.07          35.96         -3.761          7.752          14.68          69.49          17.86          95.47          110.7
    0.8068              -38.33           1.21          61.08          35.97         -3.771          7.758          14.79          69.44          17.82          95.47          110.8
    0.8378              -38.31          1.245           61.1          35.97         -3.783          7.766           14.9          69.39          17.78          95.46          110.8
    0.8688              -38.29          1.285          61.12          35.98         -3.796          7.774          15.03          69.33          17.73          95.45          110.9
    0.8999              -38.26          1.331          61.15          35.99         -3.811          7.783          15.18          69.27          17.68          95.44          110.9
    0.9309              -38.22          1.383          61.17          35.99         -3.828          7.794          15.35          69.19          17.62          95.43          111.0
    0.9619              -38.19          1.443          61.21           36.0         -3.848          7.806          15.55          69.11          17.55          95.42          111.1
